<?xml version="1.0" standalone="no"?>
<!DOCTYPE svg PUBLIC "-//W3C//DTD SVG 20010904//EN"
 "http://www.w3.org/TR/2001/REC-SVG-20010904/DTD/svg10.dtd">
<svg version="1.0" xmlns="http://www.w3.org/2000/svg"
 width="512.000000pt" height="512.000000pt" viewBox="0 0 512.000000 512.000000"
 preserveAspectRatio="xMidYMid meet">

<g transform="translate(0.000000,512.000000) scale(0.100000,-0.100000)"
fill="#000000" stroke="none">
<path d="M2341 5110 c-508 -49 -957 -227 -1361 -538 -126 -97 -363 -340 -461
-472 -121 -164 -171 -244 -254 -415 -125 -257 -193 -473 -236 -756 -32 -205
-32 -533 0 -738 43 -283 111 -499 236 -756 131 -268 269 -460 489 -681 221
-220 413 -358 681 -489 257 -125 473 -193 756 -236 193 -30 558 -33 724 -6
583 93 1060 332 1455 727 393 394 639 883 727 1450 27 173 24 536 -6 729 -43
283 -111 499 -236 756 -131 268 -269 460 -489 681 -221 220 -413 358 -681 489
-257 125 -477 194 -751 235 -160 24 -452 33 -593 20z m407 -1486 c223 -45 394
-136 553 -294 236 -233 348 -543 318 -876 -52 -551 -517 -974 -1074 -974 -282
0 -537 100 -736 288 -146 138 -232 270 -290 442 -78 235 -78 465 0 700 125
374 454 653 850 720 84 14 297 11 379 -6z m-1570 -11 c121 -57 244 -302 227
-452 -14 -131 -104 -235 -227 -265 l-28 -6 0 -154 c0 -152 0 -153 25 -166 53
-29 55 -42 55 -493 0 -235 -4 -426 -9 -440 -33 -86 -154 -98 -206 -21 -19 27
-20 51 -23 436 -3 445 -1 474 48 510 l30 22 0 153 0 153 -27 6 c-128 31 -223
152 -223 284 0 166 106 371 222 429 52 26 88 27 136 4z m2620 -208 c1 -119 7
-193 13 -202 7 -7 31 -13 55 -13 64 0 68 12 61 208 -3 90 -2 174 3 187 10 28
43 37 67 20 16 -12 19 -36 23 -212 l5 -198 43 -3 c72 -5 72 -4 72 209 0 182 1
188 22 203 19 13 25 14 43 2 19 -13 20 -23 20 -267 l0 -254 -28 -41 c-32 -47
-86 -80 -145 -90 l-42 -7 0 -183 0 -183 29 -20 c51 -37 52 -43 49 -510 l-3
-433 -33 -29 c-46 -41 -108 -41 -154 0 l-33 29 -3 433 c-3 467 -2 473 49 510
l29 20 0 183 0 183 -48 7 c-69 9 -127 50 -157 110 -24 49 -25 55 -25 287 0
234 0 238 22 253 19 13 25 14 43 2 19 -13 20 -25 23 -201z"/>
</g>
</svg>
